# xmcd
#
# Track frame offsets: 
#        150
#        27386
#        53368
#        81466
#        106382
#        121637
#        151576
#        203381
#        233517
#
# Disc length: 3471 seconds
#
# Revision: 0
# Processed by: cddbd v1.5.2PL0 Copyright (c) Steve Scherf et al.
# Submitted via: ExactAudioCopy v0.99pb4
#
DISCID=580d8d09
DTITLE=Guitar Shorty - My Way Or The Highway (SACD)
DYEAR=1991
DGENRE=Blues
TTITLE0=No Educated Woman
TTITLE1=You Gave Me The Blues Baby
TTITLE2=Shorty Jumps In
TTITLE3=Down Thru The Years
TTITLE4=Red Hot Mama
TTITLE5=Hot and Saucy, Short and Grand
TTITLE6=It's Too Late
TTITLE7=Kick Out
TTITLE8=My Way Or The Highway
EXTD=
EXTT0=
EXTT1=
EXTT2=
EXTT3=
EXTT4=
EXTT5=
EXTT6=
EXTT7=
EXTT8=
PLAYORDER=
